<?xml version="1.0" standalone="no"?>
<!DOCTYPE svg PUBLIC "-//W3C//DTD SVG 20010904//EN"
 "http://www.w3.org/TR/2001/REC-SVG-20010904/DTD/svg10.dtd">
<svg version="1.0" xmlns="http://www.w3.org/2000/svg"
 width="456.000000pt" height="456.000000pt" viewBox="0 0 456.000000 456.000000"
 preserveAspectRatio="xMidYMid meet">
<metadata>
Created by potrace 1.14, written by Peter Selinger 2001-2017
</metadata>
<g transform="translate(0.000000,456.000000) scale(0.100000,-0.100000)"
fill="#000000" stroke="none">
<path d="M342 2526 c-56 -19 -99 -62 -120 -118 -11 -29 -24 -52 -28 -51 -20 3
-65 -33 -80 -65 -33 -69 11 -155 85 -168 20 -4 42 -15 49 -25 7 -10 33 -30 57
-45 36 -21 57 -26 112 -26 81 0 117 13 159 54 26 24 37 28 55 22 51 -17 129
11 148 52 26 57 8 129 -39 157 -22 13 -29 26 -34 67 -6 43 -12 53 -42 74 -28
19 -46 23 -79 20 -30 -3 -46 1 -55 11 -7 8 -19 15 -26 15 -8 0 -14 4 -14 9 0
20 -104 32 -148 17z m129 -27 c19 -10 41 -25 49 -33 10 -13 23 -15 60 -10 42
6 50 3 79 -23 28 -24 33 -35 33 -75 0 -41 3 -47 24 -52 34 -9 62 -59 58 -104
-6 -68 -74 -105 -146 -80 -25 9 -31 7 -49 -16 -63 -80 -226 -84 -306 -7 -13
12 -23 26 -23 31 0 6 -15 10 -32 10 -19 0 -45 10 -61 23 -71 57 -42 152 56
181 9 3 17 15 17 28 0 42 43 100 90 125 51 27 97 28 151 2z"/>
<path d="M437 2443 c-11 -10 -8 -55 3 -48 5 3 9 17 8 30 -3 28 -2 27 -11 18z"/>
<path d="M322 2378 c8 -12 21 -24 28 -26 8 -3 6 5 -6 21 -23 32 -42 36 -22 5z"/>
<path d="M542 2380 c-18 -29 -15 -36 8 -15 20 18 26 35 12 35 -4 0 -13 -9 -20
-20z"/>
<path d="M405 2346 c-31 -13 -55 -51 -55 -86 0 -11 9 -34 20 -52 11 -18 20
-45 20 -59 0 -29 14 -45 46 -51 29 -4 54 19 54 51 0 14 9 41 20 59 34 56 20
110 -35 137 -39 18 -32 18 -70 1z m87 -33 c27 -24 27 -51 1 -101 -14 -26 -24
-49 -22 -52 2 -3 -10 -8 -27 -11 -16 -4 -26 -8 -21 -9 13 -4 27 -7 40 -9 7 -1
6 -5 -5 -11 -23 -14 -45 -3 -51 26 -4 21 -1 24 27 25 l31 1 -32 11 c-38 14
-62 43 -63 75 -1 69 69 101 122 55z"/>
<path d="M587 2283 c-15 -2 -25 -8 -22 -12 6 -11 55 -1 55 10 0 5 -1 8 -2 8
-2 -1 -15 -4 -31 -6z"/>
<path d="M270 2276 c0 -2 11 -6 25 -8 14 -3 25 -1 25 3 0 5 -11 9 -25 9 -14 0
-25 -2 -25 -4z"/>
<path d="M1211 2441 c-30 -9 -66 -30 -86 -49 -35 -35 -64 -102 -59 -137 2 -11
4 -31 6 -45 9 -72 89 -145 169 -155 62 -8 142 18 184 61 39 38 44 54 18 49
-10 -2 -20 -4 -23 -4 -3 -1 -14 -16 -24 -35 -26 -49 -98 -67 -146 -37 -70 43
-104 112 -105 209 0 71 1 75 33 103 51 45 109 38 172 -22 27 -25 43 -32 70
-30 19 1 36 3 38 5 6 7 -51 67 -77 81 -41 21 -113 23 -170 6z"/>
<path d="M1490 2441 c0 -5 6 -24 14 -42 16 -42 15 -274 -2 -306 -20 -36 -14
-41 39 -38 59 3 67 9 48 31 -10 13 -15 61 -17 191 l-4 173 -39 0 c-21 0 -39
-4 -39 -9z"/>
<path d="M2470 2442 c0 -4 7 -17 15 -28 8 -10 15 -40 15 -66 l0 -47 -27 15
c-35 18 -81 18 -124 0 -113 -47 -115 -191 -4 -249 21 -11 48 -14 85 -11 30 3
73 6 95 7 l40 2 0 190 0 190 -47 3 c-27 2 -48 -1 -48 -6z m-10 -165 c35 -36
54 -96 45 -143 -7 -41 -47 -74 -78 -67 -95 23 -137 211 -54 242 30 11 53 3 87
-32z"/>
<path d="M2789 2443 c0 -5 -2 -16 -4 -26 -5 -26 21 -32 51 -13 14 10 43 18 65
19 l40 3 -2 -152 c0 -109 -5 -160 -15 -179 -8 -15 -12 -30 -10 -34 6 -9 103
-7 112 2 4 3 1 14 -7 23 -10 13 -15 58 -17 176 l-3 158 43 0 c24 0 54 -7 66
-16 26 -18 52 -5 48 24 -3 15 -22 17 -184 20 -100 1 -182 -1 -183 -5z"/>
<path d="M3620 2445 c0 -3 8 -17 17 -32 14 -21 17 -49 16 -165 -1 -86 -5 -144
-12 -151 -6 -6 -11 -18 -11 -27 0 -14 10 -17 55 -16 43 1 55 4 55 16 0 9 -5
21 -11 27 -6 6 -12 29 -14 52 -2 32 1 43 15 51 14 7 22 7 30 -2 5 -7 24 -29
40 -48 22 -25 30 -44 28 -65 -3 -30 -2 -30 47 -31 28 0 53 1 56 3 9 4 -148
163 -161 163 -15 0 60 65 98 84 17 9 32 18 32 20 0 2 -19 3 -42 2 -28 0 -43
-6 -43 -14 0 -15 -74 -82 -91 -82 -7 0 -10 37 -10 108 l1 107 -48 3 c-26 2
-47 0 -47 -3z"/>
<path d="M4318 2436 c-28 -10 -34 -31 -29 -88 2 -12 -5 -18 -18 -18 -12 0 -21
-7 -21 -15 0 -10 7 -15 18 -13 15 3 17 -7 19 -80 2 -117 15 -143 86 -166 24
-7 22 19 -3 51 -16 21 -20 41 -20 109 0 74 2 83 20 89 25 8 27 27 3 23 -15 -3
-19 7 -23 57 l-5 61 -27 -10z"/>
<path d="M3192 2418 c-17 -17 -15 -32 7 -52 15 -14 24 -15 40 -6 35 18 21 70
-19 70 -9 0 -21 -5 -28 -12z"/>
<path d="M1725 2318 c-39 -14 -53 -26 -70 -57 -22 -44 -24 -86 -5 -128 57
-127 262 -98 277 40 13 110 -91 184 -202 145z m96 -39 c50 -50 63 -138 28
-183 -53 -68 -148 16 -149 132 0 78 66 106 121 51z"/>
<path d="M1970 2312 c0 -10 3 -22 7 -26 4 -4 8 -33 9 -64 4 -96 14 -131 45
-150 49 -31 139 -19 160 20 6 12 13 60 15 107 1 47 4 95 6 106 2 16 -3 20 -25
21 -22 1 -26 -2 -20 -15 14 -30 15 -185 1 -204 -19 -25 -73 -29 -100 -7 -21
16 -23 27 -23 102 1 45 4 92 9 104 7 19 4 21 -38 22 -39 2 -46 -1 -46 -16z"/>
<path d="M3180 2312 c0 -10 5 -23 11 -29 10 -10 8 -147 -2 -208 -4 -18 2 -20
44 -20 50 0 54 4 35 38 -6 12 -12 67 -13 122 -2 55 -3 103 -4 108 -1 4 -17 7
-36 7 -27 0 -35 -4 -35 -18z"/>
<path d="M3415 2323 c-117 -30 -131 -196 -21 -251 66 -33 124 -28 174 16 23
20 29 42 12 42 -5 0 -17 -11 -26 -25 -24 -37 -48 -47 -79 -35 -33 13 -48 27
-70 70 -37 71 -13 170 41 170 29 0 66 -17 77 -36 5 -8 24 -14 45 -14 l37 1
-39 34 c-33 30 -46 35 -85 34 -25 -1 -55 -4 -66 -6z"/>
<path d="M4020 2312 c-45 -24 -81 -92 -73 -136 10 -58 42 -97 94 -116 61 -22
140 6 169 61 9 16 7 19 -8 19 -12 0 -24 -11 -32 -30 -19 -45 -75 -56 -113 -22
-10 9 -27 35 -37 57 l-19 40 30 3 c36 4 34 27 -2 27 -32 0 -36 33 -9 68 36 46
93 31 135 -35 19 -31 19 -31 -48 -30 -26 1 -37 -3 -34 -11 6 -18 157 -19 157
-1 0 25 -32 79 -57 98 -37 28 -110 32 -153 8z"/>
</g>
</svg>
